<?xml version="1.0" standalone="no"?>
<!DOCTYPE svg PUBLIC "-//W3C//DTD SVG 1.1//EN" "http://www.w3.org/Graphics/SVG/1.1/DTD/svg11.dtd"><svg t="1615997487702"
  class="icon" viewBox="0 0 1024 1024" version="1.1" xmlns="http://www.w3.org/2000/svg" p-id="2019"
  xmlns:xlink="http://www.w3.org/1999/xlink" width="200" height="200">
  <defs>
    <style type="text/css"></style>
  </defs>
  <path
    d="M512 401.25742901L733.48384743 179.7735816c31.64058661-31.64058661 79.101596-31.64058661 110.74218262 0s31.64058661 79.101596 0 110.74218261L622.74257099 512l221.48384741 221.48384743c31.64058661 31.64058661 31.64058661 79.101596 0 110.74218262s-79.101596 31.64058661-110.74218261 0L512 622.74257099 290.51615257 844.2264184c-31.64058661 31.64058661-79.101596 31.64058661-110.74218262 0-31.64058661-31.64058661-31.64058661-79.101596 0-110.74218261L401.25742901 512 179.7735816 290.51615257C148.13247715 258.87504814 148.13247715 211.41468603 179.7735816 179.7735816c31.64058661-31.64058661 79.101596-31.64058661 110.74218261 0L512 401.25742901Z"
    p-id="2020"></path>
</svg>