<?xml version="1.0" standalone="no"?>
<!DOCTYPE svg PUBLIC "-//W3C//DTD SVG 1.1//EN" "http://www.w3.org/Graphics/SVG/1.1/DTD/svg11.dtd"><svg t="1614359322666"
  class="icon" viewBox="0 0 1024 1024" version="1.1" xmlns="http://www.w3.org/2000/svg" p-id="2976"
  xmlns:xlink="http://www.w3.org/1999/xlink" width="200" height="200">
  <defs>
    <style type="text/css"></style>
  </defs>
  <path d="M512 512m-512 0a512 512 0 1 0 1024 0 512 512 0 1 0-1024 0Z" fill="#000000" p-id="2977"></path>
  <path
    d="M709.678545 590.114909c-9.157818-56.692364-47.592727-93.835636-47.592727-93.835636 5.492364-51.479273-14.661818-60.613818-14.661818-60.613818C643.2 276.421818 514.699636 279.214545 512 279.284364c-2.699636-0.069818-131.211636-2.862545-135.424 156.392727 0 0-20.154182 9.146182-14.661818 60.613818 0 0-38.434909 37.143273-47.592727 93.847273 0 0-4.887273 95.790545 43.938909 11.729454 0 0 10.996364 31.930182 31.127272 60.613819 0 0-36.014545 13.032727-32.942545 46.917818 0 0-1.233455 37.783273 76.916364 35.2 0 0 54.923636-4.549818 71.400727-29.323637h14.533818c16.477091 24.773818 71.412364 29.323636 71.412364 29.323637 78.114909 2.606545 76.893091-35.2 76.893091-35.2 3.037091-33.873455-32.954182-46.917818-32.954182-46.917818 20.130909-28.683636 31.127273-60.613818 31.127272-60.613819 48.779636 84.061091 43.904-11.752727 43.904-11.752727z"
    p-id="2978"></path>
</svg>